<svg xmlns="http://www.w3.org/2000/svg" viewBox="0 0 100 100">
  <defs>
    <clipPath id="fav-silhueta"><rect x="-25" y="-25" width="50" height="50" rx="11"/></clipPath>
    <mask id="fav-tl"><rect x="-25" y="-25" width="27" height="27" fill="#fff"/><circle cx="2" cy="-11.5" r="6" fill="#fff"/><circle cx="-11.5" cy="2" r="6" fill="#fff"/></mask>
    <mask id="fav-tr"><rect x="2" y="-25" width="23" height="27" fill="#fff"/><circle cx="2" cy="-11.5" r="6" fill="#000"/><circle cx="13.5" cy="2" r="6" fill="#000"/></mask>
    <mask id="fav-bl"><rect x="-25" y="2" width="27" height="23" fill="#fff"/><circle cx="-11.5" cy="2" r="6" fill="#000"/><circle cx="2" cy="13.5" r="6" fill="#000"/></mask>
    <mask id="fav-br"><rect x="2" y="2" width="23" height="23" fill="#fff"/><circle cx="13.5" cy="2" r="6" fill="#fff"/><circle cx="2" cy="13.5" r="6" fill="#fff"/></mask>
  </defs>
  <g transform="translate(50,50) rotate(45)">
    <g clip-path="url(#fav-silhueta)">
      <rect x="-30" y="-30" width="60" height="60" fill="#f2c744" mask="url(#fav-tl)"/>
      <rect x="-30" y="-30" width="60" height="60" fill="#f0665a" mask="url(#fav-tr)"/>
      <rect x="-30" y="-30" width="60" height="60" fill="#7c5cc0" mask="url(#fav-bl)"/>
      <rect x="-30" y="-30" width="60" height="60" fill="#6dbe45" mask="url(#fav-br)"/>
    </g>
  </g>
  <circle cx="43" cy="30" r="3.3" fill="#3a3630"/>
  <circle cx="57" cy="30" r="3.3" fill="#3a3630"/>
  <path d="M43 37 Q50 43 57 37" stroke="#3a3630" stroke-width="3.2" fill="none" stroke-linecap="round"/>
</svg>
